<svg width="7" height="8" viewBox="0 0 7 8" fill="none" xmlns="http://www.w3.org/2000/svg">
<path opacity="0.6" d="M0.369405 6.15615C0.138915 6.38664 0.138915 6.76034 0.369405 6.99082C0.599894 7.22131 0.973592 7.22131 1.20408 6.99082L0.369405 6.15615ZM6.95044 1C6.95044 0.674038 6.68619 0.409794 6.36023 0.409794L1.04838 0.409794C0.722416 0.409794 0.458172 0.674038 0.458172 1C0.458172 1.32596 0.722416 1.59021 1.04838 1.59021H5.77002V6.31185C5.77002 6.63781 6.03427 6.90206 6.36023 6.90206C6.68619 6.90206 6.95044 6.63781 6.95044 6.31185L6.95044 1ZM0.786743 6.57349L1.20408 6.99082L6.77757 1.41734L6.36023 1L5.94289 0.582661L0.369405 6.15615L0.786743 6.57349Z" fill="white"/>
</svg>
